<svg id="Layer_1" data-name="Layer 1" xmlns="http://www.w3.org/2000/svg" viewBox="0 0 644.38 644.38"><defs><style>.cls-1{fill:none;opacity:0.13;}.cls-2,.cls-3{fill:#ff5f7a;}.cls-2{opacity:0.32;}.cls-4{fill:#fff;}</style></defs><title>amd_one</title><rect class="cls-1" width="644.38" height="644.38"/><rect class="cls-2" x="85.58" y="55.41" width="500" height="512.74"/><rect class="cls-3" x="95.46" y="68.2" width="480.07" height="486.65" rx="39.71"/><path class="cls-4" d="M355.7,477.41h47.78a13.28,13.28,0,0,1,7.63,12.79v14.36A12.94,12.94,0,0,1,401,516.22l12.34,23.33H399.67L387.1,516.67l-18.17-.45.23,23.33H355.7V503l43.74.22L399.22,490H355.7Z" transform="translate(-176.42 -200.21)"/><path class="cls-4" d="M416.86,477.41q11.89,18.21,23.78,36.42l.12,25.54,10.73.07.07-26q11.15-18,22.28-36.05h-14L446,499.85l-13.8-22.44Z" transform="translate(-176.42 -200.21)"/><path class="cls-4" d="M484,477.41h51.83V490.2l-34.25,36.57h34.25v12.78H484V526.32l33.88-35.89-33.88.22Z" transform="translate(-176.42 -200.21)"/><rect class="cls-4" x="372.88" y="277.2" width="52.27" height="12.79"/><path class="cls-4" d="M549.29,501v38.58h52.27v-13l-42.18-.11q-.07-6.36-.14-12.7l42.32-.09V501Z" transform="translate(-176.42 -200.21)"/><path class="cls-4" d="M615.77,477.41v62.14h10.47V495.81l30.51,43.74h10.77l.15-62.14H655.25v36.94l-26.92-36.94Z" transform="translate(-176.42 -200.21)"/><polygon class="cls-3" points="93.2 541.39 93.2 558.58 109.31 558.58 93.2 541.39"/></svg>