<svg id="Layer_1" data-name="Layer 1" xmlns="http://www.w3.org/2000/svg" viewBox="0 0 644.38 644.38"><defs><style>.cls-1{fill:none;opacity:0.13;}.cls-2,.cls-3{fill:#ff5f7a;}.cls-2{opacity:0.32;}.cls-4{fill:#fff;}</style></defs><title>amd_two</title><rect class="cls-1" width="644.38" height="644.38"/><path class="cls-2" d="M762.37,705H262.5v-89.5a6.08,6.08,0,1,0,0-12.15V486.23c4.65.18,8.15-3.76,7.75-7.62a7.27,7.27,0,0,0-7.75-6.11v-25a7.38,7.38,0,0,0-.13-14.74q.06-56.86.13-113.73H762.37V433a6.42,6.42,0,0,0,0,12.49v25.33a7.5,7.5,0,0,0,0,14.19V601.9a7.9,7.9,0,0,0,0,15.37Z" transform="translate(-189.81 -188.76)"/><rect class="cls-3" x="83.43" y="139.89" width="480.02" height="364.6" rx="37.26"/><path class="cls-4" d="M333.33,475.53H389.6a15.55,15.55,0,0,1,9,15V507.4a15.34,15.34,0,0,1-3.08,8.08,15.68,15.68,0,0,1-8.81,5.62l14.54,27.39H385.11l-14.8-26.86-21.4-.53.27,27.39H333.33V505.56l51.51.26-.26-15.54H333.33Z" transform="translate(-189.81 -188.76)"/><path class="cls-4" d="M405.36,475.53l28,42.76q.06,15,.13,30l12.64.09.09-30.51,26.24-42.32H455.91l-16.24,26.34q-8.13-13.17-16.25-26.34Z" transform="translate(-189.81 -188.76)"/><path class="cls-4" d="M484.45,475.53h61v15l-40.34,42.94h40.34v15h-61V533l39.89-42.14-39.89.26Z" transform="translate(-189.81 -188.76)"/><rect class="cls-4" x="371.52" y="286.77" width="61.56" height="15.01"/><path class="cls-4" d="M561.33,503.19v45.3h61.56V533.22l-49.68-.14q-.09-7.46-.17-14.91l49.85-.1V503.19Z" transform="translate(-189.81 -188.76)"/><path class="cls-4" d="M639.62,475.53v73H652V497.13l35.93,51.36h12.68l.18-73H686.12V518.9l-31.7-43.37Z" transform="translate(-189.81 -188.76)"/><polygon class="cls-3" points="82.28 492.72 82.28 506.31 94.39 506.31 82.28 492.72"/></svg>