<?xml version="1.0" encoding="utf-8"?>
<!-- Generator: Adobe Illustrator 24.0.1, SVG Export Plug-In . SVG Version: 6.00 Build 0)  -->
<svg version="1.1" id="Layer_1" xmlns="http://www.w3.org/2000/svg" xmlns:xlink="http://www.w3.org/1999/xlink" x="0px" y="0px"
	 viewBox="0 0 644.4 644.4" style="enable-background:new 0 0 644.4 644.4;" xml:space="preserve">
<style type="text/css">
	.st0{fill:none;}
	.st1{fill:#9FC7FF;}
	.st2{opacity:0.47;fill:#FFFFFF;}
	.st3{opacity:0.47;fill:none;stroke:#9FC7FF;stroke-width:6;stroke-miterlimit:10;}
</style>
<title>Nvme</title>
<rect class="st0" width="644.4" height="644.4"/>
<path class="st1" d="M401.5,509H242.9c-7.1,0-12.9-5.8-12.9-12.9V172.5c0-7.1,5.8-12.9,12.9-12.9h158.6c7.1,0,12.9,5.8,12.9,12.9
	v323.6C414.4,503.2,408.6,509,401.5,509z"/>
<path class="st2" d="M395,193.1h-59.4c-1.4,0-2.4-1.1-2.4-2.4v-9.4c0-1.4,1.1-2.4,2.4-2.4H395c1.4,0,2.4,1.1,2.4,2.4v9.4
	C397.4,192,396.3,193.1,395,193.1z"/>
<circle class="st2" cx="315" cy="185.9" r="7.2"/>
<path class="st3" d="M401.5,509H242.9c-7.1,0-12.9-5.8-12.9-12.9V172.5c0-7.1,5.8-12.9,12.9-12.9h158.6c7.1,0,12.9,5.8,12.9,12.9
	v323.6C414.4,503.2,408.6,509,401.5,509z"/>
</svg>
