<svg id="Layer_1" data-name="Layer 1" xmlns="http://www.w3.org/2000/svg" viewBox="0 0 584.71 584.58"><defs><style>.cls-1{fill:gray;}</style></defs><title>close</title><path class="cls-1" d="M242,296.68,389.56,444.27c4.57,5,20.21,23.23,21.51,51.33,1.53,32.74-17.56,54.58-21.41,58.8L242.36,702.27c-18.87,20.8-18.5,52.72.18,72.58,19.5,20.73,53.17,22.19,74.91,2.51L465,629.77c2.59-3.11,22.33-26,55.42-25.8,32.6.19,51.95,22.62,54.6,25.8L722.65,777.36a53.76,53.76,0,0,0,73.88-1c20.39-20.06,21.19-53.34,1.59-74.49L650.54,554.29c-3-2.47-26.9-23-26-56.93.85-31.65,22.65-50.33,26-53.09L798.12,296.68A53.12,53.12,0,0,0,723,221.59L575.17,368.9c-1.72,2-28.9,31.94-67.31,25.38-24.27-4.15-38.69-20.44-42.82-25.49L317.45,221.2c-20.91-19.34-53.67-18.83-73.82.93C223.21,242.16,222.36,275.48,242,296.68Z" transform="translate(-227.77 -207)"/></svg>