<svg id="Layer_1" data-name="Layer 1" xmlns="http://www.w3.org/2000/svg" viewBox="0 0 644.38 644.38"><defs><style>.cls-1{fill:#d3d3d3;}.cls-2,.cls-3{fill:#ff5f7a;}.cls-3{opacity:0.32;}.cls-4{fill:#fff;opacity:0.1;}.cls-5{fill:#d0d0d0;stroke:#fff;stroke-miterlimit:10;stroke-width:10px;opacity:0.6;}.cls-6{fill:none;opacity:0.13;}</style></defs><title>GPU_AMD</title><rect class="cls-1" x="138.04" y="197.18" width="107.61" height="7.57" rx="3.03"/><path class="cls-1" d="M416.8,398.22H392.29a2,2,0,1,0,0,3.89c10.18,0,17.59.05,19.69,0a2.92,2.92,0,0,1,2.33.73,2.26,2.26,0,0,1,.45,1.59V637h4.7v-36.8l29.64-.08V584.65l-22.89-.17-.33-3.78-5.19-19.44V402.11a4.36,4.36,0,0,0-3.89-3.89Z" transform="translate(-317.81 -189.81)"/><rect class="cls-2" x="103.13" y="200.77" width="469.06" height="194.97" rx="5.11"/><path class="cls-3" d="M489,586v15.56a2.37,2.37,0,0,0,.59,1.42,2.51,2.51,0,0,0,1.71.81h11.12a2.34,2.34,0,0,0,1.77-.77,2.16,2.16,0,0,0,.53-1.37V586h7l-.23,24.65a2.25,2.25,0,0,0,.84,1.81,2.11,2.11,0,0,0,1.38.38h18a2.36,2.36,0,0,0,1.69-.8,2.26,2.26,0,0,0,.53-1.4l-.14-11.22a1.27,1.27,0,0,1,2.43,0,2.91,2.91,0,0,0,.83,1.46,2.84,2.84,0,0,0,1.39.72v9a2.25,2.25,0,0,0,2.22,2.28l132.63,0a2.34,2.34,0,0,0,2.26-2.26V597.17h6.76v9a2.22,2.22,0,0,0,.61,1.57,2.28,2.28,0,0,0,1.73.66l17.93,0A4.33,4.33,0,0,0,706,607a4,4,0,0,0,.93-2.23v-5.31a3.76,3.76,0,0,0-1.15-2.27,4.06,4.06,0,0,0-3.6-.81,8.72,8.72,0,0,1-4.33-.75,8.61,8.61,0,0,1-3.39-2.77l-.1-6.84Z" transform="translate(-317.81 -189.81)"/><circle class="cls-4" cx="228.05" cy="300.78" r="87.93"/><circle class="cls-4" cx="438.66" cy="300.78" r="87.93"/><circle class="cls-5" cx="228.05" cy="300.78" r="31"/><circle class="cls-5" cx="438.66" cy="300.78" r="31"/><rect class="cls-6" width="644.38" height="644.38"/></svg>