<svg id="Layer_1" data-name="Layer 1" xmlns="http://www.w3.org/2000/svg" viewBox="0 0 644.38 644.38"><defs><style>.cls-1{fill:#d3d3d3;}.cls-2,.cls-3{fill:#00ffbf;}.cls-3{opacity:0.32;}.cls-4{opacity:0.1;}.cls-5{stroke:#333;stroke-miterlimit:10;stroke-width:10px;opacity:0.6;}.cls-6{fill:none;opacity:0.13;}</style></defs><title>GPU</title><rect class="cls-1" x="131.29" y="209.98" width="96.59" height="6.8" rx="3.03"/><path class="cls-1" d="M414.06,409.87h-22a1.77,1.77,0,1,0,0,3.5c9.14,0,15.79.05,17.68,0a2.63,2.63,0,0,1,2.09.65,2.06,2.06,0,0,1,.41,1.43V624.21h4.21v-33l26.6-.07V577.21l-20.54-.15-.3-3.4-4.65-17.44V413.37a3.94,3.94,0,0,0-1.17-2.41A4,4,0,0,0,414.06,409.87Z" transform="translate(-317.81 -189.81)"/><rect class="cls-2" x="99.96" y="213.2" width="472.23" height="175" rx="5.11"/><path class="cls-3" d="M478.81,578.39v14a2.15,2.15,0,0,0,2.07,2h10a2.11,2.11,0,0,0,1.59-.69,2,2,0,0,0,.48-1.23V578.39h6.28L499,600.52a2,2,0,0,0,.76,1.62,1.93,1.93,0,0,0,1.23.35h16.16a2.17,2.17,0,0,0,1.51-.72,2,2,0,0,0,.48-1.27L519,590.44a1.17,1.17,0,0,1,1.12-.8,1.14,1.14,0,0,1,1.06.8,2.68,2.68,0,0,0,.75,1.31,2.63,2.63,0,0,0,1.25.65v8a2.08,2.08,0,0,0,.51,1.37,2.17,2.17,0,0,0,1.49.68l119,0a2.08,2.08,0,0,0,2-2v-12h6.07v8a2,2,0,0,0,.55,1.41,2.06,2.06,0,0,0,1.55.59l16.09,0a3.87,3.87,0,0,0,3.11-1.22,3.65,3.65,0,0,0,.83-2v-4.77a3.42,3.42,0,0,0-1-2,3.65,3.65,0,0,0-3.24-.73,7.75,7.75,0,0,1-6.93-3.16l-.08-6.14Z" transform="translate(-317.81 -189.81)"/><circle class="cls-4" cx="212.09" cy="302.98" r="78.93"/><circle class="cls-4" cx="462.4" cy="302.98" r="78.93"/><circle class="cls-5" cx="212.09" cy="302.98" r="27.82"/><circle class="cls-5" cx="462.4" cy="302.98" r="27.82"/><rect class="cls-6" width="644.38" height="644.38"/></svg>