<svg id="Layer_1" data-name="Layer 1" xmlns="http://www.w3.org/2000/svg" viewBox="0 0 644.38 644.38"><defs><style>.cls-1,.cls-2,.cls-3{fill:#6aa0ff;}.cls-1{opacity:0.32;}.cls-2{opacity:0.61;}.cls-4{fill:none;opacity:0.13;}.cls-5{font-size:90px;fill:#fff;font-family:ProductSans-Regular, Product Sans;letter-spacing:0em;}.cls-6{letter-spacing:-0.01em;}.cls-7{letter-spacing:-0.03em;}.cls-8{letter-spacing:0em;}</style></defs><title>intel_model_one_i5</title><path class="cls-1" d="M370.64,284.89v28.57a13.11,13.11,0,0,1,0,25.76V780.16h500V338a14.37,14.37,0,0,1,0-27.87V280.69Z" transform="translate(-295.73 -216.91)"/><path class="cls-2" d="M429.79,759.4H799.67a26.38,26.38,0,0,0,12.75-4.74,27.27,27.27,0,0,0,10.47-16.21v-78c-.54-11.75,2.7-17.14,5.82-19.89,3.74-3.28,7.65-3.07,12.75-7.49A28,28,0,0,0,849,622.26v-166a17.1,17.1,0,0,0-6.32-8.4c-4.58-3-8.36-1.57-12-3.43s-7-6.72-7.37-20.24q-.06-39.56-.13-79.13a27.91,27.91,0,0,0-8.67-19.19A27.5,27.5,0,0,0,798,318.81l-364.84,2a26.83,26.83,0,0,0-17,19.28v81.23c.62,13.55-2.74,19.07-6.31,21.47-4.33,2.91-9.36,1.47-14.63,5.87a19.38,19.38,0,0,0-5.87,9.2v164.3a13.18,13.18,0,0,0,3.16,8.76c5.66,6.48,15.69,2.79,20.3,8.89,2.16,2.87,2,6.37,1.77,9.17,0,0,.36,43.25-.52,90.69a19.72,19.72,0,0,0,15.77,19.72Z" transform="translate(-295.73 -216.91)"/><path class="cls-3" d="M430.16,377.3V700.73a28.78,28.78,0,0,0,5.22,17.58c7.41,10.33,19.16,11.6,21,11.77h39.46a40.08,40.08,0,0,1,17.62,2.36,41.82,41.82,0,0,1,21.33,18.63H696.68c1.36-2.94,7.54-15.39,21.5-20.11a34.48,34.48,0,0,1,13.91-1.64l47.68.12a29.56,29.56,0,0,0,25.93-26.18v-326a32.4,32.4,0,0,0-31.87-28.92H733.61a38.9,38.9,0,0,1-39-21.25H539.09A38.22,38.22,0,0,1,520.37,346a37.07,37.07,0,0,1-18.71,3l-42.5-.08a39,39,0,0,0-29,28.41Z" transform="translate(-295.73 -216.91)"/><rect class="cls-4" width="644.38" height="644.38"/><text class="cls-5" transform="translate(193.02 348.92)">c<tspan class="cls-6" x="46.53" y="0">o</tspan><tspan class="cls-7" x="96.03" y="0">r</tspan><tspan class="cls-8" x="126" y="0">e i5</tspan></text></svg>