<svg id="Layer_1" data-name="Layer 1" xmlns="http://www.w3.org/2000/svg" viewBox="0 0 644.38 644.38"><defs><style>.cls-1,.cls-2{fill:#6aa0ff;}.cls-1{opacity:0.32;}.cls-3{fill:none;opacity:0.13;}.cls-4{font-size:90px;fill:#fff;font-family:ProductSans-Regular, Product Sans;letter-spacing:0em;}.cls-5{letter-spacing:-0.01em;}.cls-6{letter-spacing:-0.03em;}.cls-7{letter-spacing:0em;}</style></defs><title>intel_model_two_i7</title><path class="cls-1" d="M880.14,804.19H805.25a13.59,13.59,0,0,0-27.17,0H506.41a12.47,12.47,0,1,0-24.86,0H390V219.77h91.25c-1.15,7.77,4.82,14.15,10.79,14.16s12-6.37,10.84-14.16H783.57c-.79,7,4.83,12.93,11.09,12.83s11.47-6,10.69-12.83H890q-.84,288.41-1.69,576.8a7.32,7.32,0,0,1-1.62,5.15A7.76,7.76,0,0,1,880.14,804.19Z" transform="translate(-316.31 -191.07)"/><polygon class="cls-2" points="82.56 587.68 82.56 603.97 98.84 603.97 82.56 587.68"/><path class="cls-2" d="M435,239.22h98.49a7.32,7.32,0,0,1,5.69,5.49v9.42a11.59,11.59,0,0,0,8,8.63l180.88-1a12.67,12.67,0,0,0,4.32-3.09,12.46,12.46,0,0,0,2.35-3.78v-9a11.12,11.12,0,0,1,6.08-6.67h99.86l37.86,37.67a15.84,15.84,0,0,1,3.9,5.73,16,16,0,0,1,1.11,5.89v24a16.1,16.1,0,0,1-6.77,9.86H864.69a12,12,0,0,0-7.21,8.24q-.08,49.74-.14,99.47a11.62,11.62,0,0,0,3.75,9.34,11,11,0,0,0,7,2.57H874a12.79,12.79,0,0,1,11.18,14V568c.24,7.26-1.86,13.17-5.8,14.71a6.34,6.34,0,0,1-2.19.4h-9a11.61,11.61,0,0,0-7.41,2.74,11.77,11.77,0,0,0-4,7.85q0,49.23-.08,98.46c0,.42-.21,6.67,4.27,9.44a8.24,8.24,0,0,0,3.65,1.18h11.19a9.16,9.16,0,0,1,6.86,2.67,9.05,9.05,0,0,1,2.5,6.55v26.09l-13.29,15.7L841.64,785.2H747.87a12.48,12.48,0,0,1-7.85-2.46,13.64,13.64,0,0,1-4.32-6.18c-2-4.85-.53-7-2.43-9.88-1-1.46-2.9-3.2-7.18-4l-173.33.4c-.36,0-7.55.19-9.71,4.93a6.67,6.67,0,0,0-.59,2.57l-.15,9.27a6.86,6.86,0,0,1-6.47,6.47l-92.7,1a17.46,17.46,0,0,1-12.65-6.18l-32-31.7a14,14,0,0,1-4.93-10.33q.3-13,.59-25.94a8.49,8.49,0,0,1,2.79-6.18,8.37,8.37,0,0,1,5.94-2l8.11-.05a11.74,11.74,0,0,0,7.39-3.29,11.9,11.9,0,0,0,3.43-8.34q-.12-46.12-.25-92.25c0-.77.16-8-5.49-12.21a13.65,13.65,0,0,0-7.5-2.65l-6.62.15a8.93,8.93,0,0,1-6.59-3.2,8.64,8.64,0,0,1-1.8-5.68V457.37A12,12,0,0,1,403,445.21l7.35.1a7.8,7.8,0,0,0,5-2,8,8,0,0,0,2.39-6.33q-.1-48.25-.2-96.52c-.13-7.08-3.19-13.14-8.26-15.49a12,12,0,0,0-5.11-1.06l-4.73,0a8.17,8.17,0,0,1-5.1-2.17,8.29,8.29,0,0,1-2.5-5.78V283.56Z" transform="translate(-316.31 -191.07)"/><rect class="cls-3" width="644.38" height="644.38"/><text class="cls-4" transform="translate(193.24 346.34)">c<tspan class="cls-5" x="46.53" y="0">o</tspan><tspan class="cls-6" x="96.03" y="0">r</tspan><tspan class="cls-7" x="126" y="0">e i7</tspan></text></svg>