<svg id="Layer_1" data-name="Layer 1" xmlns="http://www.w3.org/2000/svg" viewBox="0 0 644.38 644.38"><defs><style>.cls-1{fill:#1fffd6;}.cls-2{opacity:0.2;}.cls-3{opacity:0.1;}.cls-4{fill:none;opacity:0.13;}</style></defs><title>motherboard</title><rect class="cls-1" x="102.26" y="72.19" width="439.86" height="500" rx="13.66"/><rect class="cls-2" x="268.43" y="197.05" width="95.64" height="95.64" rx="8.81"/><rect class="cls-2" x="416.88" y="98.15" width="15.94" height="283.3" rx="7.97"/><rect class="cls-3" x="438.14" y="98.15" width="15.94" height="283.3" rx="7.97"/><rect class="cls-2" x="459.53" y="98.15" width="15.94" height="283.3" rx="7.97"/><rect class="cls-3" x="480.56" y="98.15" width="15.94" height="283.3" rx="7.97"/><rect class="cls-2" x="509.94" y="180.39" width="19.64" height="102.16" rx="4.28"/><rect class="cls-3" x="187.6" y="436.4" width="199.98" height="18.68" rx="6.18"/><rect class="cls-2" x="187.6" y="520.93" width="199.98" height="18.68" rx="6.18"/><rect class="cls-2" x="187.6" y="478.66" width="51.2" height="18.68" rx="6.18"/><circle class="cls-2" cx="276.19" cy="485.12" r="20.29"/><rect class="cls-2" x="428.79" y="467.63" width="44.44" height="42.51" rx="4.75"/><rect class="cls-2" x="385.96" y="547.82" width="46.85" height="13.85"/><rect class="cls-2" x="143.8" y="514.65" width="14.49" height="14.49"/><rect class="cls-2" x="131.24" y="449.92" width="9.02" height="9.02"/><rect class="cls-2" x="247.49" y="368.77" width="9.5" height="9.5"/><rect class="cls-2" x="171.82" y="319.83" width="12.88" height="21.58"/><rect class="cls-2" x="179.23" y="77.34" width="38.64" height="20.81"/><rect class="cls-2" x="390.79" y="79.92" width="21.25" height="12.88"/><rect class="cls-2" x="99.36" y="77.34" width="38.32" height="32.52"/><rect class="cls-2" x="102.26" y="117.6" width="42.18" height="70.52"/><rect class="cls-2" x="88.09" y="128.51" width="14.17" height="46.69"/><rect class="cls-2" x="99.36" y="197.05" width="27.37" height="34.42"/><rect class="cls-2" x="99.36" y="243.18" width="36.07" height="30.27"/><rect class="cls-2" x="99.36" y="282.55" width="36.39" height="30.19"/><rect class="cls-2" x="99.36" y="319.83" width="57" height="38.64"/><rect class="cls-2" x="99.36" y="363.62" width="45.08" height="25.12"/><rect class="cls-2" x="92.6" y="368.77" width="6.76" height="12.68"/><rect class="cls-2" x="360.2" y="382.19" width="11.35" height="47.34"/><rect class="cls-2" x="501.73" y="455.07" width="32.85" height="10.79" rx="5.39"/><rect class="cls-2" x="501.73" y="512.03" width="32.85" height="10.79" rx="5.39"/><rect class="cls-3" x="501.73" y="530.94" width="32.85" height="10.79" rx="5.39"/><rect class="cls-2" x="501.73" y="549.17" width="32.85" height="10.79" rx="5.39"/><rect class="cls-2" x="171.82" y="131.12" width="55.55" height="173.89" rx="6.71"/><rect class="cls-4" width="644.38" height="644.38"/></svg>