<svg id="Layer_1" data-name="Layer 1" xmlns="http://www.w3.org/2000/svg" viewBox="0 0 644.38 644.38"><defs><style>.cls-1{fill:#ff903f;}.cls-2{fill:#fff;opacity:0.32;}.cls-3{fill:none;opacity:0.13;}</style></defs><title>Nvme</title><path class="cls-1" d="M390,445.86v55.21a11.15,11.15,0,1,1,0,22.27v55a2.29,2.29,0,0,0,2.28,2.28h38.19a4.55,4.55,0,0,1,1.35-.87,4.46,4.46,0,0,1,2-.3l38.29.09a4.16,4.16,0,0,1,1.73.22,4,4,0,0,1,1.39.86H809.53a3.73,3.73,0,0,1,3.32-1.66l36.82,0a4.94,4.94,0,0,1,3.91,1.71h8.5a2.39,2.39,0,0,0,1.41-.73,2.45,2.45,0,0,0,.61-1.68v-1.89a3.05,3.05,0,0,1,.91-1.73,3.15,3.15,0,0,1,2.34-.81H887.6a1.77,1.77,0,0,0,1.5-.75,1.11,1.11,0,0,0,.13-.49V555.7a1.57,1.57,0,0,0-.55-1.26,1.34,1.34,0,0,0-.75-.28l-16.9.05a4.14,4.14,0,0,1,0-8.18l16.44.12a1.72,1.72,0,0,0,1.37-.54,1.64,1.64,0,0,0,.39-1V451.33a1.66,1.66,0,0,0-.38-1.05,1.68,1.68,0,0,0-1.09-.58l-20.47.06a2.78,2.78,0,0,1-2.87-2.47l0-2.05a2,2,0,0,0-.42-1.05,2.29,2.29,0,0,0-1.76-.77H392.62a2.93,2.93,0,0,0-1.73.76A2.88,2.88,0,0,0,390,445.86Z" transform="translate(-317.81 -189.81)"/><rect class="cls-2" x="559.17" y="259.94" width="13.02" height="96.35" rx="1.98"/><rect class="cls-2" x="559.17" y="364.35" width="13.02" height="19.58" rx="1.98"/><rect class="cls-3" width="644.38" height="644.38"/></svg>