<svg id="Layer_1" data-name="Layer 1" xmlns="http://www.w3.org/2000/svg" viewBox="0 0 644.38 644.38"><defs><style>.cls-1,.cls-2,.cls-3,.cls-4{fill:#ff835f;}.cls-1{opacity:0.31;}.cls-2{opacity:0.79;}.cls-3{opacity:0.56;}.cls-4{opacity:0.32;}.cls-5{fill:none;opacity:0.13;}</style></defs><title>psu</title><rect class="cls-1" x="71.5" y="209.93" width="500" height="237.24" rx="26.73"/><rect class="cls-2" x="101.26" y="269.38" width="85.7" height="42.56" rx="5.26"/><rect class="cls-3" x="102.46" y="240.78" width="29.45" height="16.19" rx="2.65"/><polygon class="cls-4" points="100.89 336.51 98.31 332.05 100.89 327.58 106.04 327.58 108.62 332.05 106.04 336.51 100.89 336.51"/><polygon class="cls-4" points="116.92 336.51 114.34 332.05 116.92 327.58 122.07 327.58 124.65 332.05 122.07 336.51 116.92 336.51"/><polygon class="cls-4" points="132.95 336.51 130.37 332.05 132.95 327.58 138.1 327.58 140.68 332.05 138.1 336.51 132.95 336.51"/><polygon class="cls-4" points="148.98 336.51 146.4 332.05 148.98 327.58 154.13 327.58 156.71 332.05 154.13 336.51 148.98 336.51"/><polygon class="cls-4" points="165.01 336.51 162.43 332.05 165.01 327.58 170.16 327.58 172.74 332.05 170.16 336.51 165.01 336.51"/><polygon class="cls-4" points="181.04 336.51 178.46 332.05 181.04 327.58 186.19 327.58 188.77 332.05 186.19 336.51 181.04 336.51"/><polygon class="cls-4" points="197.07 336.51 194.5 332.05 197.07 327.58 202.22 327.58 204.8 332.05 202.22 336.51 197.07 336.51"/><polygon class="cls-4" points="213.1 336.51 210.53 332.05 213.1 327.58 218.25 327.58 220.83 332.05 218.25 336.51 213.1 336.51"/><polygon class="cls-4" points="229.13 336.51 226.56 332.05 229.13 327.58 234.28 327.58 236.86 332.05 234.28 336.51 229.13 336.51"/><polygon class="cls-4" points="245.16 336.51 242.59 332.05 245.16 327.58 250.31 327.58 252.89 332.05 250.31 336.51 245.16 336.51"/><polygon class="cls-4" points="261.19 336.51 258.62 332.05 261.19 327.58 266.34 327.58 268.92 332.05 266.34 336.51 261.19 336.51"/><polygon class="cls-4" points="277.22 336.51 274.65 332.05 277.22 327.58 282.38 327.58 284.95 332.05 282.38 336.51 277.22 336.51"/><polygon class="cls-4" points="108.9 349.95 106.33 345.49 108.9 341.03 114.06 341.03 116.63 345.49 114.06 349.95 108.9 349.95"/><polygon class="cls-4" points="124.93 349.95 122.36 345.49 124.93 341.03 130.09 341.03 132.66 345.49 130.09 349.95 124.93 349.95"/><polygon class="cls-4" points="140.96 349.95 138.39 345.49 140.96 341.03 146.12 341.03 148.69 345.49 146.12 349.95 140.96 349.95"/><polygon class="cls-4" points="157 349.95 154.42 345.49 157 341.03 162.15 341.03 164.72 345.49 162.15 349.95 157 349.95"/><polygon class="cls-4" points="173.03 349.95 170.45 345.49 173.03 341.03 178.18 341.03 180.75 345.49 178.18 349.95 173.03 349.95"/><polygon class="cls-4" points="189.06 349.95 186.48 345.49 189.06 341.03 194.21 341.03 196.78 345.49 194.21 349.95 189.06 349.95"/><polygon class="cls-4" points="205.09 349.95 202.51 345.49 205.09 341.03 210.24 341.03 212.81 345.49 210.24 349.95 205.09 349.95"/><polygon class="cls-4" points="221.12 349.95 218.54 345.49 221.12 341.03 226.27 341.03 228.84 345.49 226.27 349.95 221.12 349.95"/><polygon class="cls-4" points="237.15 349.95 234.57 345.49 237.15 341.03 242.3 341.03 244.88 345.49 242.3 349.95 237.15 349.95"/><polygon class="cls-4" points="253.18 349.95 250.6 345.49 253.18 341.03 258.33 341.03 260.9 345.49 258.33 349.95 253.18 349.95"/><polygon class="cls-4" points="269.21 349.95 266.63 345.49 269.21 341.03 274.36 341.03 276.94 345.49 274.36 349.95 269.21 349.95"/><polygon class="cls-4" points="285.24 349.95 282.66 345.49 285.24 341.03 290.39 341.03 292.97 345.49 290.39 349.95 285.24 349.95"/><polygon class="cls-4" points="100.89 363.39 98.31 358.93 100.89 354.47 106.04 354.47 108.62 358.93 106.04 363.39 100.89 363.39"/><polygon class="cls-4" points="116.92 363.39 114.34 358.93 116.92 354.47 122.07 354.47 124.65 358.93 122.07 363.39 116.92 363.39"/><polygon class="cls-4" points="132.95 363.39 130.37 358.93 132.95 354.47 138.1 354.47 140.68 358.93 138.1 363.39 132.95 363.39"/><polygon class="cls-4" points="148.98 363.39 146.4 358.93 148.98 354.47 154.13 354.47 156.71 358.93 154.13 363.39 148.98 363.39"/><polygon class="cls-4" points="165.01 363.39 162.43 358.93 165.01 354.47 170.16 354.47 172.74 358.93 170.16 363.39 165.01 363.39"/><polygon class="cls-4" points="181.04 363.39 178.46 358.93 181.04 354.47 186.19 354.47 188.77 358.93 186.19 363.39 181.04 363.39"/><polygon class="cls-4" points="197.07 363.39 194.5 358.93 197.07 354.47 202.22 354.47 204.8 358.93 202.22 363.39 197.07 363.39"/><polygon class="cls-4" points="213.1 363.39 210.53 358.93 213.1 354.47 218.25 354.47 220.83 358.93 218.25 363.39 213.1 363.39"/><polygon class="cls-4" points="229.13 363.39 226.56 358.93 229.13 354.47 234.28 354.47 236.86 358.93 234.28 363.39 229.13 363.39"/><polygon class="cls-4" points="245.16 363.39 242.59 358.93 245.16 354.47 250.31 354.47 252.89 358.93 250.31 363.39 245.16 363.39"/><polygon class="cls-4" points="261.19 363.39 258.62 358.93 261.19 354.47 266.34 354.47 268.92 358.93 266.34 363.39 261.19 363.39"/><polygon class="cls-4" points="277.22 363.39 274.65 358.93 277.22 354.47 282.38 354.47 284.95 358.93 282.38 363.39 277.22 363.39"/><polygon class="cls-4" points="108.92 376.84 106.34 372.38 108.92 367.92 114.07 367.92 116.64 372.38 114.07 376.84 108.92 376.84"/><polygon class="cls-4" points="124.95 376.84 122.37 372.38 124.95 367.92 130.1 367.92 132.68 372.38 130.1 376.84 124.95 376.84"/><polygon class="cls-4" points="140.98 376.84 138.4 372.38 140.98 367.92 146.13 367.92 148.71 372.38 146.13 376.84 140.98 376.84"/><polygon class="cls-4" points="157.01 376.84 154.43 372.38 157.01 367.92 162.16 367.92 164.74 372.38 162.16 376.84 157.01 376.84"/><polygon class="cls-4" points="173.04 376.84 170.46 372.38 173.04 367.92 178.19 367.92 180.77 372.38 178.19 376.84 173.04 376.84"/><polygon class="cls-4" points="189.07 376.84 186.49 372.38 189.07 367.92 194.22 367.92 196.8 372.38 194.22 376.84 189.07 376.84"/><polygon class="cls-4" points="205.1 376.84 202.52 372.38 205.1 367.92 210.25 367.92 212.83 372.38 210.25 376.84 205.1 376.84"/><polygon class="cls-4" points="221.13 376.84 218.55 372.38 221.13 367.92 226.28 367.92 228.86 372.38 226.28 376.84 221.13 376.84"/><polygon class="cls-4" points="237.16 376.84 234.58 372.38 237.16 367.92 242.31 367.92 244.89 372.38 242.31 376.84 237.16 376.84"/><polygon class="cls-4" points="253.19 376.84 250.62 372.38 253.19 367.92 258.34 367.92 260.92 372.38 258.34 376.84 253.19 376.84"/><polygon class="cls-4" points="269.22 376.84 266.64 372.38 269.22 367.92 274.37 367.92 276.95 372.38 274.37 376.84 269.22 376.84"/><polygon class="cls-4" points="285.25 376.84 282.68 372.38 285.25 367.92 290.4 367.92 292.98 372.38 290.4 376.84 285.25 376.84"/><polygon class="cls-4" points="100.9 389.63 98.33 385.17 100.9 380.71 106.05 380.71 108.63 385.17 106.05 389.63 100.9 389.63"/><polygon class="cls-4" points="116.93 389.63 114.36 385.17 116.93 380.71 122.08 380.71 124.66 385.17 122.08 389.63 116.93 389.63"/><polygon class="cls-4" points="132.96 389.63 130.39 385.17 132.96 380.71 138.12 380.71 140.69 385.17 138.12 389.63 132.96 389.63"/><polygon class="cls-4" points="148.99 389.63 146.42 385.17 148.99 380.71 154.15 380.71 156.72 385.17 154.15 389.63 148.99 389.63"/><polygon class="cls-4" points="165.02 389.63 162.45 385.17 165.02 380.71 170.18 380.71 172.75 385.17 170.18 389.63 165.02 389.63"/><polygon class="cls-4" points="181.05 389.63 178.48 385.17 181.05 380.71 186.21 380.71 188.78 385.17 186.21 389.63 181.05 389.63"/><polygon class="cls-4" points="197.08 389.63 194.51 385.17 197.08 380.71 202.24 380.71 204.81 385.17 202.24 389.63 197.08 389.63"/><polygon class="cls-4" points="213.12 389.63 210.54 385.17 213.12 380.71 218.27 380.71 220.84 385.17 218.27 389.63 213.12 389.63"/><polygon class="cls-4" points="229.15 389.63 226.57 385.17 229.15 380.71 234.3 380.71 236.87 385.17 234.3 389.63 229.15 389.63"/><polygon class="cls-4" points="245.18 389.63 242.6 385.17 245.18 380.71 250.33 380.71 252.9 385.17 250.33 389.63 245.18 389.63"/><polygon class="cls-4" points="261.21 389.63 258.63 385.17 261.21 380.71 266.36 380.71 268.93 385.17 266.36 389.63 261.21 389.63"/><polygon class="cls-4" points="277.24 389.63 274.66 385.17 277.24 380.71 282.39 380.71 284.96 385.17 282.39 389.63 277.24 389.63"/><polygon class="cls-4" points="207.39 274.07 204.81 269.61 207.39 265.14 212.54 265.14 215.12 269.61 212.54 274.07 207.39 274.07"/><polygon class="cls-4" points="223.42 274.07 220.84 269.61 223.42 265.14 228.57 265.14 231.15 269.61 228.57 274.07 223.42 274.07"/><polygon class="cls-4" points="239.45 274.07 236.87 269.61 239.45 265.14 244.6 265.14 247.18 269.61 244.6 274.07 239.45 274.07"/><polygon class="cls-4" points="255.48 274.07 252.9 269.61 255.48 265.14 260.63 265.14 263.21 269.61 260.63 274.07 255.48 274.07"/><polygon class="cls-4" points="271.51 274.07 268.93 269.61 271.51 265.14 276.66 265.14 279.24 269.61 276.66 274.07 271.51 274.07"/><polygon class="cls-4" points="287.54 274.07 284.96 269.61 287.54 265.14 292.69 265.14 295.27 269.61 292.69 274.07 287.54 274.07"/><polygon class="cls-4" points="303.57 274.07 301 269.61 303.57 265.14 308.72 265.14 311.3 269.61 308.72 274.07 303.57 274.07"/><polygon class="cls-4" points="319.6 274.07 317.02 269.61 319.6 265.14 324.75 265.14 327.33 269.61 324.75 274.07 319.6 274.07"/><polygon class="cls-4" points="335.63 274.07 333.06 269.61 335.63 265.14 340.78 265.14 343.36 269.61 340.78 274.07 335.63 274.07"/><polygon class="cls-4" points="351.66 274.07 349.09 269.61 351.66 265.14 356.81 265.14 359.39 269.61 356.81 274.07 351.66 274.07"/><polygon class="cls-4" points="367.69 274.07 365.12 269.61 367.69 265.14 372.85 265.14 375.42 269.61 372.85 274.07 367.69 274.07"/><polygon class="cls-4" points="383.72 274.07 381.15 269.61 383.72 265.14 388.88 265.14 391.45 269.61 388.88 274.07 383.72 274.07"/><polygon class="cls-4" points="215.4 286.21 212.83 281.75 215.4 277.29 220.56 277.29 223.13 281.75 220.56 286.21 215.4 286.21"/><polygon class="cls-4" points="231.43 286.21 228.86 281.75 231.43 277.29 236.59 277.29 239.16 281.75 236.59 286.21 231.43 286.21"/><polygon class="cls-4" points="247.46 286.21 244.89 281.75 247.46 277.29 252.62 277.29 255.19 281.75 252.62 286.21 247.46 286.21"/><polygon class="cls-4" points="263.5 286.21 260.92 281.75 263.5 277.29 268.65 277.29 271.22 281.75 268.65 286.21 263.5 286.21"/><polygon class="cls-4" points="279.52 286.21 276.95 281.75 279.52 277.29 284.68 277.29 287.25 281.75 284.68 286.21 279.52 286.21"/><polygon class="cls-4" points="295.56 286.21 292.98 281.75 295.56 277.29 300.71 277.29 303.28 281.75 300.71 286.21 295.56 286.21"/><polygon class="cls-4" points="311.59 286.21 309.01 281.75 311.59 277.29 316.74 277.29 319.31 281.75 316.74 286.21 311.59 286.21"/><polygon class="cls-4" points="327.62 286.21 325.04 281.75 327.62 277.29 332.77 277.29 335.35 281.75 332.77 286.21 327.62 286.21"/><polygon class="cls-4" points="343.65 286.21 341.07 281.75 343.65 277.29 348.8 277.29 351.38 281.75 348.8 286.21 343.65 286.21"/><polygon class="cls-4" points="359.68 286.21 357.1 281.75 359.68 277.29 364.83 277.29 367.4 281.75 364.83 286.21 359.68 286.21"/><polygon class="cls-4" points="375.71 286.21 373.13 281.75 375.71 277.29 380.86 277.29 383.44 281.75 380.86 286.21 375.71 286.21"/><polygon class="cls-4" points="391.74 286.21 389.16 281.75 391.74 277.29 396.89 277.29 399.47 281.75 396.89 286.21 391.74 286.21"/><polygon class="cls-4" points="207.39 298.36 204.81 293.9 207.39 289.44 212.54 289.44 215.12 293.9 212.54 298.36 207.39 298.36"/><polygon class="cls-4" points="223.42 298.36 220.84 293.9 223.42 289.44 228.57 289.44 231.15 293.9 228.57 298.36 223.42 298.36"/><polygon class="cls-4" points="239.45 298.36 236.87 293.9 239.45 289.44 244.6 289.44 247.18 293.9 244.6 298.36 239.45 298.36"/><polygon class="cls-4" points="255.48 298.36 252.9 293.9 255.48 289.44 260.63 289.44 263.21 293.9 260.63 298.36 255.48 298.36"/><polygon class="cls-4" points="271.51 298.36 268.93 293.9 271.51 289.44 276.66 289.44 279.24 293.9 276.66 298.36 271.51 298.36"/><polygon class="cls-4" points="287.54 298.36 284.96 293.9 287.54 289.44 292.69 289.44 295.27 293.9 292.69 298.36 287.54 298.36"/><polygon class="cls-4" points="303.57 298.36 301 293.9 303.57 289.44 308.72 289.44 311.3 293.9 308.72 298.36 303.57 298.36"/><polygon class="cls-4" points="319.6 298.36 317.02 293.9 319.6 289.44 324.75 289.44 327.33 293.9 324.75 298.36 319.6 298.36"/><polygon class="cls-4" points="335.63 298.36 333.06 293.9 335.63 289.44 340.78 289.44 343.36 293.9 340.78 298.36 335.63 298.36"/><polygon class="cls-4" points="351.66 298.36 349.09 293.9 351.66 289.44 356.81 289.44 359.39 293.9 356.81 298.36 351.66 298.36"/><polygon class="cls-4" points="367.69 298.36 365.12 293.9 367.69 289.44 372.85 289.44 375.42 293.9 372.85 298.36 367.69 298.36"/><polygon class="cls-4" points="383.72 298.36 381.15 293.9 383.72 289.44 388.88 289.44 391.45 293.9 388.88 298.36 383.72 298.36"/><polygon class="cls-4" points="215.42 310.51 212.84 306.05 215.42 301.58 220.57 301.58 223.15 306.05 220.57 310.51 215.42 310.51"/><polygon class="cls-4" points="231.45 310.51 228.87 306.05 231.45 301.58 236.6 301.58 239.18 306.05 236.6 310.51 231.45 310.51"/><polygon class="cls-4" points="247.48 310.51 244.9 306.05 247.48 301.58 252.63 301.58 255.21 306.05 252.63 310.51 247.48 310.51"/><polygon class="cls-4" points="263.51 310.51 260.93 306.05 263.51 301.58 268.66 301.58 271.24 306.05 268.66 310.51 263.51 310.51"/><polygon class="cls-4" points="279.54 310.51 276.96 306.05 279.54 301.58 284.69 301.58 287.27 306.05 284.69 310.51 279.54 310.51"/><polygon class="cls-4" points="295.57 310.51 292.99 306.05 295.57 301.58 300.72 301.58 303.3 306.05 300.72 310.51 295.57 310.51"/><polygon class="cls-4" points="311.6 310.51 309.02 306.05 311.6 301.58 316.75 301.58 319.33 306.05 316.75 310.51 311.6 310.51"/><polygon class="cls-4" points="327.63 310.51 325.05 306.05 327.63 301.58 332.78 301.58 335.36 306.05 332.78 310.51 327.63 310.51"/><polygon class="cls-4" points="343.66 310.51 341.08 306.05 343.66 301.58 348.81 301.58 351.39 306.05 348.81 310.51 343.66 310.51"/><polygon class="cls-4" points="359.69 310.51 357.12 306.05 359.69 301.58 364.84 301.58 367.42 306.05 364.84 310.51 359.69 310.51"/><polygon class="cls-4" points="375.72 310.51 373.14 306.05 375.72 301.58 380.87 301.58 383.45 306.05 380.87 310.51 375.72 310.51"/><polygon class="cls-4" points="391.75 310.51 389.18 306.05 391.75 301.58 396.9 301.58 399.48 306.05 396.9 310.51 391.75 310.51"/><polygon class="cls-4" points="207.4 322.65 204.83 318.19 207.4 313.73 212.55 313.73 215.13 318.19 212.55 322.65 207.4 322.65"/><polygon class="cls-4" points="223.43 322.65 220.86 318.19 223.43 313.73 228.58 313.73 231.16 318.19 228.58 322.65 223.43 322.65"/><polygon class="cls-4" points="239.46 322.65 236.89 318.19 239.46 313.73 244.62 313.73 247.19 318.19 244.62 322.65 239.46 322.65"/><polygon class="cls-4" points="255.49 322.65 252.92 318.19 255.49 313.73 260.64 313.73 263.22 318.19 260.64 322.65 255.49 322.65"/><polygon class="cls-4" points="271.52 322.65 268.95 318.19 271.52 313.73 276.68 313.73 279.25 318.19 276.68 322.65 271.52 322.65"/><polygon class="cls-4" points="287.55 322.65 284.98 318.19 287.55 313.73 292.71 313.73 295.28 318.19 292.71 322.65 287.55 322.65"/><polygon class="cls-4" points="303.58 322.65 301.01 318.19 303.58 313.73 308.74 313.73 311.31 318.19 308.74 322.65 303.58 322.65"/><polygon class="cls-4" points="319.62 322.65 317.04 318.19 319.62 313.73 324.77 313.73 327.34 318.19 324.77 322.65 319.62 322.65"/><polygon class="cls-4" points="335.64 322.65 333.07 318.19 335.64 313.73 340.8 313.73 343.37 318.19 340.8 322.65 335.64 322.65"/><polygon class="cls-4" points="351.68 322.65 349.1 318.19 351.68 313.73 356.83 313.73 359.4 318.19 356.83 322.65 351.68 322.65"/><polygon class="cls-4" points="367.71 322.65 365.13 318.19 367.71 313.73 372.86 313.73 375.43 318.19 372.86 322.65 367.71 322.65"/><polygon class="cls-4" points="383.74 322.65 381.16 318.19 383.74 313.73 388.89 313.73 391.46 318.19 388.89 322.65 383.74 322.65"/><polygon class="cls-4" points="294.4 336.51 291.83 332.05 294.4 327.58 299.56 327.58 302.13 332.05 299.56 336.51 294.4 336.51"/><polygon class="cls-4" points="310.44 336.51 307.86 332.05 310.44 327.58 315.59 327.58 318.16 332.05 315.59 336.51 310.44 336.51"/><polygon class="cls-4" points="326.46 336.51 323.89 332.05 326.46 327.58 331.62 327.58 334.19 332.05 331.62 336.51 326.46 336.51"/><polygon class="cls-4" points="342.5 336.51 339.92 332.05 342.5 327.58 347.65 327.58 350.22 332.05 347.65 336.51 342.5 336.51"/><polygon class="cls-4" points="358.53 336.51 355.95 332.05 358.53 327.58 363.68 327.58 366.25 332.05 363.68 336.51 358.53 336.51"/><polygon class="cls-4" points="374.56 336.51 371.98 332.05 374.56 327.58 379.71 327.58 382.29 332.05 379.71 336.51 374.56 336.51"/><polygon class="cls-4" points="390.59 336.51 388.01 332.05 390.59 327.58 395.74 327.58 398.31 332.05 395.74 336.51 390.59 336.51"/><polygon class="cls-4" points="406.62 336.51 404.04 332.05 406.62 327.58 411.77 327.58 414.35 332.05 411.77 336.51 406.62 336.51"/><polygon class="cls-4" points="422.65 336.51 420.07 332.05 422.65 327.58 427.8 327.58 430.38 332.05 427.8 336.51 422.65 336.51"/><polygon class="cls-4" points="438.68 336.51 436.1 332.05 438.68 327.58 443.83 327.58 446.41 332.05 443.83 336.51 438.68 336.51"/><polygon class="cls-4" points="454.71 336.51 452.13 332.05 454.71 327.58 459.86 327.58 462.44 332.05 459.86 336.51 454.71 336.51"/><polygon class="cls-4" points="470.74 336.51 468.16 332.05 470.74 327.58 475.89 327.58 478.47 332.05 475.89 336.51 470.74 336.51"/><polygon class="cls-4" points="302.42 349.95 299.84 345.49 302.42 341.03 307.57 341.03 310.15 345.49 307.57 349.95 302.42 349.95"/><polygon class="cls-4" points="318.45 349.95 315.87 345.49 318.45 341.03 323.6 341.03 326.18 345.49 323.6 349.95 318.45 349.95"/><polygon class="cls-4" points="334.48 349.95 331.9 345.49 334.48 341.03 339.63 341.03 342.21 345.49 339.63 349.95 334.48 349.95"/><polygon class="cls-4" points="350.51 349.95 347.94 345.49 350.51 341.03 355.66 341.03 358.24 345.49 355.66 349.95 350.51 349.95"/><polygon class="cls-4" points="366.54 349.95 363.96 345.49 366.54 341.03 371.69 341.03 374.27 345.49 371.69 349.95 366.54 349.95"/><polygon class="cls-4" points="382.57 349.95 380 345.49 382.57 341.03 387.72 341.03 390.3 345.49 387.72 349.95 382.57 349.95"/><polygon class="cls-4" points="398.6 349.95 396.03 345.49 398.6 341.03 403.75 341.03 406.33 345.49 403.75 349.95 398.6 349.95"/><polygon class="cls-4" points="414.63 349.95 412.06 345.49 414.63 341.03 419.79 341.03 422.36 345.49 419.79 349.95 414.63 349.95"/><polygon class="cls-4" points="430.66 349.95 428.09 345.49 430.66 341.03 435.81 341.03 438.39 345.49 435.81 349.95 430.66 349.95"/><polygon class="cls-4" points="446.69 349.95 444.12 345.49 446.69 341.03 451.85 341.03 454.42 345.49 451.85 349.95 446.69 349.95"/><polygon class="cls-4" points="462.72 349.95 460.15 345.49 462.72 341.03 467.88 341.03 470.45 345.49 467.88 349.95 462.72 349.95"/><polygon class="cls-4" points="478.75 349.95 476.18 345.49 478.75 341.03 483.91 341.03 486.48 345.49 483.91 349.95 478.75 349.95"/><polygon class="cls-4" points="294.4 363.39 291.83 358.93 294.4 354.47 299.56 354.47 302.13 358.93 299.56 363.39 294.4 363.39"/><polygon class="cls-4" points="310.44 363.39 307.86 358.93 310.44 354.47 315.59 354.47 318.16 358.93 315.59 363.39 310.44 363.39"/><polygon class="cls-4" points="326.46 363.39 323.89 358.93 326.46 354.47 331.62 354.47 334.19 358.93 331.62 363.39 326.46 363.39"/><polygon class="cls-4" points="342.5 363.39 339.92 358.93 342.5 354.47 347.65 354.47 350.22 358.93 347.65 363.39 342.5 363.39"/><polygon class="cls-4" points="358.53 363.39 355.95 358.93 358.53 354.47 363.68 354.47 366.25 358.93 363.68 363.39 358.53 363.39"/><polygon class="cls-4" points="374.56 363.39 371.98 358.93 374.56 354.47 379.71 354.47 382.29 358.93 379.71 363.39 374.56 363.39"/><polygon class="cls-4" points="390.59 363.39 388.01 358.93 390.59 354.47 395.74 354.47 398.31 358.93 395.74 363.39 390.59 363.39"/><polygon class="cls-4" points="406.62 363.39 404.04 358.93 406.62 354.47 411.77 354.47 414.35 358.93 411.77 363.39 406.62 363.39"/><polygon class="cls-4" points="422.65 363.39 420.07 358.93 422.65 354.47 427.8 354.47 430.38 358.93 427.8 363.39 422.65 363.39"/><polygon class="cls-4" points="438.68 363.39 436.1 358.93 438.68 354.47 443.83 354.47 446.41 358.93 443.83 363.39 438.68 363.39"/><polygon class="cls-4" points="454.71 363.39 452.13 358.93 454.71 354.47 459.86 354.47 462.44 358.93 459.86 363.39 454.71 363.39"/><polygon class="cls-4" points="470.74 363.39 468.16 358.93 470.74 354.47 475.89 354.47 478.47 358.93 475.89 363.39 470.74 363.39"/><polygon class="cls-4" points="302.43 376.84 299.86 372.38 302.43 367.92 307.58 367.92 310.16 372.38 307.58 376.84 302.43 376.84"/><polygon class="cls-4" points="318.46 376.84 315.89 372.38 318.46 367.92 323.62 367.92 326.19 372.38 323.62 376.84 318.46 376.84"/><polygon class="cls-4" points="334.49 376.84 331.92 372.38 334.49 367.92 339.65 367.92 342.22 372.38 339.65 376.84 334.49 376.84"/><polygon class="cls-4" points="350.52 376.84 347.95 372.38 350.52 367.92 355.68 367.92 358.25 372.38 355.68 376.84 350.52 376.84"/><polygon class="cls-4" points="366.56 376.84 363.98 372.38 366.56 367.92 371.71 367.92 374.28 372.38 371.71 376.84 366.56 376.84"/><polygon class="cls-4" points="382.58 376.84 380.01 372.38 382.58 367.92 387.74 367.92 390.31 372.38 387.74 376.84 382.58 376.84"/><polygon class="cls-4" points="398.62 376.84 396.04 372.38 398.62 367.92 403.77 367.92 406.34 372.38 403.77 376.84 398.62 376.84"/><polygon class="cls-4" points="414.65 376.84 412.07 372.38 414.65 367.92 419.8 367.92 422.37 372.38 419.8 376.84 414.65 376.84"/><polygon class="cls-4" points="430.68 376.84 428.1 372.38 430.68 367.92 435.83 367.92 438.4 372.38 435.83 376.84 430.68 376.84"/><polygon class="cls-4" points="446.71 376.84 444.13 372.38 446.71 367.92 451.86 367.92 454.44 372.38 451.86 376.84 446.71 376.84"/><polygon class="cls-4" points="462.74 376.84 460.16 372.38 462.74 367.92 467.89 367.92 470.47 372.38 467.89 376.84 462.74 376.84"/><polygon class="cls-4" points="478.77 376.84 476.19 372.38 478.77 367.92 483.92 367.92 486.5 372.38 483.92 376.84 478.77 376.84"/><polygon class="cls-4" points="294.42 389.63 291.84 385.17 294.42 380.71 299.57 380.71 302.15 385.17 299.57 389.63 294.42 389.63"/><polygon class="cls-4" points="310.45 389.63 307.87 385.17 310.45 380.71 315.6 380.71 318.18 385.17 315.6 389.63 310.45 389.63"/><polygon class="cls-4" points="326.48 389.63 323.9 385.17 326.48 380.71 331.63 380.71 334.21 385.17 331.63 389.63 326.48 389.63"/><polygon class="cls-4" points="342.51 389.63 339.93 385.17 342.51 380.71 347.66 380.71 350.24 385.17 347.66 389.63 342.51 389.63"/><polygon class="cls-4" points="358.54 389.63 355.96 385.17 358.54 380.71 363.69 380.71 366.27 385.17 363.69 389.63 358.54 389.63"/><polygon class="cls-4" points="374.57 389.63 371.99 385.17 374.57 380.71 379.72 380.71 382.3 385.17 379.72 389.63 374.57 389.63"/><polygon class="cls-4" points="390.6 389.63 388.02 385.17 390.6 380.71 395.75 380.71 398.33 385.17 395.75 389.63 390.6 389.63"/><polygon class="cls-4" points="406.63 389.63 404.06 385.17 406.63 380.71 411.78 380.71 414.36 385.17 411.78 389.63 406.63 389.63"/><polygon class="cls-4" points="422.66 389.63 420.08 385.17 422.66 380.71 427.81 380.71 430.39 385.17 427.81 389.63 422.66 389.63"/><polygon class="cls-4" points="438.69 389.63 436.12 385.17 438.69 380.71 443.84 380.71 446.42 385.17 443.84 389.63 438.69 389.63"/><polygon class="cls-4" points="454.72 389.63 452.15 385.17 454.72 380.71 459.87 380.71 462.45 385.17 459.87 389.63 454.72 389.63"/><polygon class="cls-4" points="470.75 389.63 468.18 385.17 470.75 380.71 475.9 380.71 478.48 385.17 475.9 389.63 470.75 389.63"/><polygon class="cls-4" points="398.62 274.07 396.04 269.61 398.62 265.14 403.77 265.14 406.34 269.61 403.77 274.07 398.62 274.07"/><polygon class="cls-4" points="414.65 274.07 412.07 269.61 414.65 265.14 419.8 265.14 422.37 269.61 419.8 274.07 414.65 274.07"/><polygon class="cls-4" points="430.68 274.07 428.1 269.61 430.68 265.14 435.83 265.14 438.4 269.61 435.83 274.07 430.68 274.07"/><polygon class="cls-4" points="446.71 274.07 444.13 269.61 446.71 265.14 451.86 265.14 454.44 269.61 451.86 274.07 446.71 274.07"/><polygon class="cls-4" points="462.74 274.07 460.16 269.61 462.74 265.14 467.89 265.14 470.47 269.61 467.89 274.07 462.74 274.07"/><polygon class="cls-4" points="478.77 274.07 476.19 269.61 478.77 265.14 483.92 265.14 486.5 269.61 483.92 274.07 478.77 274.07"/><polygon class="cls-4" points="494.8 274.07 492.22 269.61 494.8 265.14 499.95 265.14 502.53 269.61 499.95 274.07 494.8 274.07"/><polygon class="cls-4" points="510.83 274.07 508.25 269.61 510.83 265.14 515.98 265.14 518.56 269.61 515.98 274.07 510.83 274.07"/><polygon class="cls-4" points="526.86 274.07 524.28 269.61 526.86 265.14 532.01 265.14 534.59 269.61 532.01 274.07 526.86 274.07"/><polygon class="cls-4" points="406.63 286.21 404.06 281.75 406.63 277.29 411.78 277.29 414.36 281.75 411.78 286.21 406.63 286.21"/><polygon class="cls-4" points="422.66 286.21 420.08 281.75 422.66 277.29 427.81 277.29 430.39 281.75 427.81 286.21 422.66 286.21"/><polygon class="cls-4" points="438.69 286.21 436.12 281.75 438.69 277.29 443.84 277.29 446.42 281.75 443.84 286.21 438.69 286.21"/><polygon class="cls-4" points="454.72 286.21 452.15 281.75 454.72 277.29 459.87 277.29 462.45 281.75 459.87 286.21 454.72 286.21"/><polygon class="cls-4" points="470.75 286.21 468.18 281.75 470.75 277.29 475.9 277.29 478.48 281.75 475.9 286.21 470.75 286.21"/><polygon class="cls-4" points="486.78 286.21 484.21 281.75 486.78 277.29 491.94 277.29 494.51 281.75 491.94 286.21 486.78 286.21"/><polygon class="cls-4" points="502.81 286.21 500.24 281.75 502.81 277.29 507.97 277.29 510.54 281.75 507.97 286.21 502.81 286.21"/><polygon class="cls-4" points="518.84 286.21 516.27 281.75 518.84 277.29 524 277.29 526.57 281.75 524 286.21 518.84 286.21"/><polygon class="cls-4" points="534.87 286.21 532.3 281.75 534.87 277.29 540.03 277.29 542.6 281.75 540.03 286.21 534.87 286.21"/><polygon class="cls-4" points="398.62 298.36 396.04 293.9 398.62 289.44 403.77 289.44 406.34 293.9 403.77 298.36 398.62 298.36"/><polygon class="cls-4" points="414.65 298.36 412.07 293.9 414.65 289.44 419.8 289.44 422.37 293.9 419.8 298.36 414.65 298.36"/><polygon class="cls-4" points="430.68 298.36 428.1 293.9 430.68 289.44 435.83 289.44 438.4 293.9 435.83 298.36 430.68 298.36"/><polygon class="cls-4" points="446.71 298.36 444.13 293.9 446.71 289.44 451.86 289.44 454.44 293.9 451.86 298.36 446.71 298.36"/><polygon class="cls-4" points="462.74 298.36 460.16 293.9 462.74 289.44 467.89 289.44 470.47 293.9 467.89 298.36 462.74 298.36"/><polygon class="cls-4" points="478.77 298.36 476.19 293.9 478.77 289.44 483.92 289.44 486.5 293.9 483.92 298.36 478.77 298.36"/><polygon class="cls-4" points="494.8 298.36 492.22 293.9 494.8 289.44 499.95 289.44 502.53 293.9 499.95 298.36 494.8 298.36"/><polygon class="cls-4" points="510.83 298.36 508.25 293.9 510.83 289.44 515.98 289.44 518.56 293.9 515.98 298.36 510.83 298.36"/><polygon class="cls-4" points="526.86 298.36 524.28 293.9 526.86 289.44 532.01 289.44 534.59 293.9 532.01 298.36 526.86 298.36"/><polygon class="cls-4" points="406.64 310.51 404.07 306.05 406.64 301.58 411.8 301.58 414.37 306.05 411.8 310.51 406.64 310.51"/><polygon class="cls-4" points="422.68 310.51 420.1 306.05 422.68 301.58 427.83 301.58 430.4 306.05 427.83 310.51 422.68 310.51"/><polygon class="cls-4" points="438.71 310.51 436.13 306.05 438.71 301.58 443.86 301.58 446.43 306.05 443.86 310.51 438.71 310.51"/><polygon class="cls-4" points="454.74 310.51 452.16 306.05 454.74 301.58 459.89 301.58 462.46 306.05 459.89 310.51 454.74 310.51"/><polygon class="cls-4" points="470.77 310.51 468.19 306.05 470.77 301.58 475.92 301.58 478.49 306.05 475.92 310.51 470.77 310.51"/><polygon class="cls-4" points="486.8 310.51 484.22 306.05 486.8 301.58 491.95 301.58 494.52 306.05 491.95 310.51 486.8 310.51"/><polygon class="cls-4" points="502.83 310.51 500.25 306.05 502.83 301.58 507.98 301.58 510.56 306.05 507.98 310.51 502.83 310.51"/><polygon class="cls-4" points="518.86 310.51 516.28 306.05 518.86 301.58 524.01 301.58 526.59 306.05 524.01 310.51 518.86 310.51"/><polygon class="cls-4" points="534.89 310.51 532.31 306.05 534.89 301.58 540.04 301.58 542.62 306.05 540.04 310.51 534.89 310.51"/><polygon class="cls-4" points="398.63 322.65 396.05 318.19 398.63 313.73 403.78 313.73 406.36 318.19 403.78 322.65 398.63 322.65"/><polygon class="cls-4" points="414.66 322.65 412.08 318.19 414.66 313.73 419.81 313.73 422.39 318.19 419.81 322.65 414.66 322.65"/><polygon class="cls-4" points="430.69 322.65 428.11 318.19 430.69 313.73 435.84 313.73 438.42 318.19 435.84 322.65 430.69 322.65"/><polygon class="cls-4" points="446.72 322.65 444.14 318.19 446.72 313.73 451.87 313.73 454.45 318.19 451.87 322.65 446.72 322.65"/><polygon class="cls-4" points="462.75 322.65 460.18 318.19 462.75 313.73 467.9 313.73 470.48 318.19 467.9 322.65 462.75 322.65"/><polygon class="cls-4" points="478.78 322.65 476.21 318.19 478.78 313.73 483.93 313.73 486.51 318.19 483.93 322.65 478.78 322.65"/><polygon class="cls-4" points="494.81 322.65 492.24 318.19 494.81 313.73 499.96 313.73 502.54 318.19 499.96 322.65 494.81 322.65"/><polygon class="cls-4" points="510.84 322.65 508.27 318.19 510.84 313.73 515.99 313.73 518.57 318.19 515.99 322.65 510.84 322.65"/><polygon class="cls-4" points="526.87 322.65 524.3 318.19 526.87 313.73 532.02 313.73 534.6 318.19 532.02 322.65 526.87 322.65"/><polygon class="cls-4" points="486.78 336.51 484.21 332.05 486.78 327.58 491.94 327.58 494.51 332.05 491.94 336.51 486.78 336.51"/><polygon class="cls-4" points="502.81 336.51 500.24 332.05 502.81 327.58 507.97 327.58 510.54 332.05 507.97 336.51 502.81 336.51"/><polygon class="cls-4" points="518.84 336.51 516.27 332.05 518.84 327.58 524 327.58 526.57 332.05 524 336.51 518.84 336.51"/><polygon class="cls-4" points="534.87 336.51 532.3 332.05 534.87 327.58 540.03 327.58 542.6 332.05 540.03 336.51 534.87 336.51"/><polygon class="cls-4" points="494.8 349.95 492.22 345.49 494.8 341.03 499.95 341.03 502.53 345.49 499.95 349.95 494.8 349.95"/><polygon class="cls-4" points="510.83 349.95 508.25 345.49 510.83 341.03 515.98 341.03 518.56 345.49 515.98 349.95 510.83 349.95"/><polygon class="cls-4" points="526.86 349.95 524.28 345.49 526.86 341.03 532.01 341.03 534.59 345.49 532.01 349.95 526.86 349.95"/><polygon class="cls-4" points="486.78 363.39 484.21 358.93 486.78 354.47 491.94 354.47 494.51 358.93 491.94 363.39 486.78 363.39"/><polygon class="cls-4" points="502.81 363.39 500.24 358.93 502.81 354.47 507.97 354.47 510.54 358.93 507.97 363.39 502.81 363.39"/><polygon class="cls-4" points="518.84 363.39 516.27 358.93 518.84 354.47 524 354.47 526.57 358.93 524 363.39 518.84 363.39"/><polygon class="cls-4" points="534.87 363.39 532.3 358.93 534.87 354.47 540.03 354.47 542.6 358.93 540.03 363.39 534.87 363.39"/><polygon class="cls-4" points="494.81 376.84 492.24 372.38 494.81 367.92 499.96 367.92 502.54 372.38 499.96 376.84 494.81 376.84"/><polygon class="cls-4" points="510.84 376.84 508.27 372.38 510.84 367.92 515.99 367.92 518.57 372.38 515.99 376.84 510.84 376.84"/><polygon class="cls-4" points="526.87 376.84 524.3 372.38 526.87 367.92 532.02 367.92 534.6 372.38 532.02 376.84 526.87 376.84"/><polygon class="cls-4" points="486.8 389.63 484.22 385.17 486.8 380.71 491.95 380.71 494.52 385.17 491.95 389.63 486.8 389.63"/><polygon class="cls-4" points="502.83 389.63 500.25 385.17 502.83 380.71 507.98 380.71 510.56 385.17 507.98 389.63 502.83 389.63"/><polygon class="cls-4" points="518.86 389.63 516.28 385.17 518.86 380.71 524.01 380.71 526.59 385.17 524.01 389.63 518.86 389.63"/><polygon class="cls-4" points="534.89 389.63 532.31 385.17 534.89 380.71 540.04 380.71 542.62 385.17 540.04 389.63 534.89 389.63"/><polygon class="cls-4" points="110.05 402.43 107.47 397.97 110.05 393.5 115.2 393.5 117.78 397.97 115.2 402.43 110.05 402.43"/><polygon class="cls-4" points="126.08 402.43 123.5 397.97 126.08 393.5 131.23 393.5 133.81 397.97 131.23 402.43 126.08 402.43"/><polygon class="cls-4" points="142.11 402.43 139.53 397.97 142.11 393.5 147.26 393.5 149.84 397.97 147.26 402.43 142.11 402.43"/><polygon class="cls-4" points="158.14 402.43 155.56 397.97 158.14 393.5 163.29 393.5 165.87 397.97 163.29 402.43 158.14 402.43"/><polygon class="cls-4" points="174.17 402.43 171.59 397.97 174.17 393.5 179.32 393.5 181.9 397.97 179.32 402.43 174.17 402.43"/><polygon class="cls-4" points="190.2 402.43 187.62 397.97 190.2 393.5 195.35 393.5 197.93 397.97 195.35 402.43 190.2 402.43"/><polygon class="cls-4" points="206.23 402.43 203.65 397.97 206.23 393.5 211.38 393.5 213.96 397.97 211.38 402.43 206.23 402.43"/><polygon class="cls-4" points="222.26 402.43 219.69 397.97 222.26 393.5 227.41 393.5 229.99 397.97 227.41 402.43 222.26 402.43"/><polygon class="cls-4" points="238.29 402.43 235.72 397.97 238.29 393.5 243.44 393.5 246.02 397.97 243.44 402.43 238.29 402.43"/><polygon class="cls-4" points="254.32 402.43 251.75 397.97 254.32 393.5 259.47 393.5 262.05 397.97 259.47 402.43 254.32 402.43"/><polygon class="cls-4" points="270.35 402.43 267.78 397.97 270.35 393.5 275.5 393.5 278.08 397.97 275.5 402.43 270.35 402.43"/><polygon class="cls-4" points="102.03 414.57 99.46 410.11 102.03 405.65 107.19 405.65 109.76 410.11 107.19 414.57 102.03 414.57"/><polygon class="cls-4" points="118.06 414.57 115.49 410.11 118.06 405.65 123.22 405.65 125.79 410.11 123.22 414.57 118.06 414.57"/><polygon class="cls-4" points="134.09 414.57 131.52 410.11 134.09 405.65 139.25 405.65 141.82 410.11 139.25 414.57 134.09 414.57"/><polygon class="cls-4" points="150.12 414.57 147.55 410.11 150.12 405.65 155.28 405.65 157.85 410.11 155.28 414.57 150.12 414.57"/><polygon class="cls-4" points="166.15 414.57 163.58 410.11 166.15 405.65 171.31 405.65 173.88 410.11 171.31 414.57 166.15 414.57"/><polygon class="cls-4" points="182.19 414.57 179.61 410.11 182.19 405.65 187.34 405.65 189.91 410.11 187.34 414.57 182.19 414.57"/><polygon class="cls-4" points="198.22 414.57 195.64 410.11 198.22 405.65 203.37 405.65 205.94 410.11 203.37 414.57 198.22 414.57"/><polygon class="cls-4" points="214.25 414.57 211.67 410.11 214.25 405.65 219.4 405.65 221.97 410.11 219.4 414.57 214.25 414.57"/><polygon class="cls-4" points="230.28 414.57 227.7 410.11 230.28 405.65 235.43 405.65 238 410.11 235.43 414.57 230.28 414.57"/><polygon class="cls-4" points="246.31 414.57 243.73 410.11 246.31 405.65 251.46 405.65 254.03 410.11 251.46 414.57 246.31 414.57"/><polygon class="cls-4" points="262.34 414.57 259.76 410.11 262.34 405.65 267.49 405.65 270.06 410.11 267.49 414.57 262.34 414.57"/><polygon class="cls-4" points="287.53 402.43 284.96 397.97 287.53 393.5 292.69 393.5 295.26 397.97 292.69 402.43 287.53 402.43"/><polygon class="cls-4" points="303.56 402.43 300.99 397.97 303.56 393.5 308.72 393.5 311.29 397.97 308.72 402.43 303.56 402.43"/><polygon class="cls-4" points="319.6 402.43 317.02 397.97 319.6 393.5 324.75 393.5 327.32 397.97 324.75 402.43 319.6 402.43"/><polygon class="cls-4" points="335.63 402.43 333.05 397.97 335.63 393.5 340.78 393.5 343.35 397.97 340.78 402.43 335.63 402.43"/><polygon class="cls-4" points="351.65 402.43 349.08 397.97 351.65 393.5 356.81 393.5 359.38 397.97 356.81 402.43 351.65 402.43"/><polygon class="cls-4" points="367.69 402.43 365.11 397.97 367.69 393.5 372.84 393.5 375.41 397.97 372.84 402.43 367.69 402.43"/><polygon class="cls-4" points="383.72 402.43 381.14 397.97 383.72 393.5 388.87 393.5 391.44 397.97 388.87 402.43 383.72 402.43"/><polygon class="cls-4" points="399.75 402.43 397.17 397.97 399.75 393.5 404.9 393.5 407.48 397.97 404.9 402.43 399.75 402.43"/><polygon class="cls-4" points="415.78 402.43 413.2 397.97 415.78 393.5 420.93 393.5 423.5 397.97 420.93 402.43 415.78 402.43"/><polygon class="cls-4" points="431.81 402.43 429.23 397.97 431.81 393.5 436.96 393.5 439.54 397.97 436.96 402.43 431.81 402.43"/><polygon class="cls-4" points="447.84 402.43 445.26 397.97 447.84 393.5 452.99 393.5 455.57 397.97 452.99 402.43 447.84 402.43"/><polygon class="cls-4" points="463.87 402.43 461.29 397.97 463.87 393.5 469.02 393.5 471.6 397.97 469.02 402.43 463.87 402.43"/><polygon class="cls-4" points="279.52 414.57 276.94 410.11 279.52 405.65 284.67 405.65 287.25 410.11 284.67 414.57 279.52 414.57"/><polygon class="cls-4" points="295.55 414.57 292.97 410.11 295.55 405.65 300.7 405.65 303.28 410.11 300.7 414.57 295.55 414.57"/><polygon class="cls-4" points="311.58 414.57 309 410.11 311.58 405.65 316.73 405.65 319.31 410.11 316.73 414.57 311.58 414.57"/><polygon class="cls-4" points="327.61 414.57 325.03 410.11 327.61 405.65 332.76 405.65 335.34 410.11 332.76 414.57 327.61 414.57"/><polygon class="cls-4" points="343.64 414.57 341.06 410.11 343.64 405.65 348.79 405.65 351.37 410.11 348.79 414.57 343.64 414.57"/><polygon class="cls-4" points="359.67 414.57 357.1 410.11 359.67 405.65 364.82 405.65 367.4 410.11 364.82 414.57 359.67 414.57"/><polygon class="cls-4" points="375.7 414.57 373.13 410.11 375.7 405.65 380.85 405.65 383.43 410.11 380.85 414.57 375.7 414.57"/><polygon class="cls-4" points="391.73 414.57 389.15 410.11 391.73 405.65 396.88 405.65 399.46 410.11 396.88 414.57 391.73 414.57"/><polygon class="cls-4" points="407.76 414.57 405.19 410.11 407.76 405.65 412.91 405.65 415.49 410.11 412.91 414.57 407.76 414.57"/><polygon class="cls-4" points="423.79 414.57 421.22 410.11 423.79 405.65 428.94 405.65 431.52 410.11 428.94 414.57 423.79 414.57"/><polygon class="cls-4" points="439.82 414.57 437.25 410.11 439.82 405.65 444.98 405.65 447.55 410.11 444.98 414.57 439.82 414.57"/><polygon class="cls-4" points="455.85 414.57 453.28 410.11 455.85 405.65 461 405.65 463.58 410.11 461 414.57 455.85 414.57"/><polygon class="cls-4" points="478.78 402.43 476.21 397.97 478.78 393.5 483.93 393.5 486.51 397.97 483.93 402.43 478.78 402.43"/><polygon class="cls-4" points="494.81 402.43 492.24 397.97 494.81 393.5 499.96 393.5 502.54 397.97 499.96 402.43 494.81 402.43"/><polygon class="cls-4" points="510.84 402.43 508.27 397.97 510.84 393.5 515.99 393.5 518.57 397.97 515.99 402.43 510.84 402.43"/><polygon class="cls-4" points="526.87 402.43 524.3 397.97 526.87 393.5 532.02 393.5 534.6 397.97 532.02 402.43 526.87 402.43"/><polygon class="cls-4" points="470.77 414.57 468.19 410.11 470.77 405.65 475.92 405.65 478.49 410.11 475.92 414.57 470.77 414.57"/><polygon class="cls-4" points="486.8 414.57 484.22 410.11 486.8 405.65 491.95 405.65 494.52 410.11 491.95 414.57 486.8 414.57"/><polygon class="cls-4" points="502.83 414.57 500.25 410.11 502.83 405.65 507.98 405.65 510.56 410.11 507.98 414.57 502.83 414.57"/><polygon class="cls-4" points="518.86 414.57 516.28 410.11 518.86 405.65 524.01 405.65 526.59 410.11 524.01 414.57 518.86 414.57"/><polygon class="cls-4" points="534.89 414.57 532.31 410.11 534.89 405.65 540.04 405.65 542.62 410.11 540.04 414.57 534.89 414.57"/><rect class="cls-5" width="644.38" height="644.38"/></svg>