<svg id="Layer_1" data-name="Layer 1" xmlns="http://www.w3.org/2000/svg" viewBox="0 0 644.38 644.38"><defs><style>.cls-1{fill:#00f4ac;}.cls-2{fill:#111500;opacity:0.32;}.cls-3{opacity:0.22;}.cls-4{fill:none;opacity:0.13;}</style></defs><title>RAM</title><path class="cls-1" d="M890,566.38H598.91l-.06-9.77a3.63,3.63,0,1,0-7.19,0l-.12,9.8H390v-28.3c4,.36,7.14-2.9,6.95-6.18a6.24,6.24,0,0,0-6.95-5.44V509c4.05.47,7.33-2.77,7.21-6.08s-3.34-6.09-7.21-5.62V457.62H890v39.83a5.81,5.81,0,1,0,0,11.49v17.95c-3.7-.55-6.7,2.28-6.7,5s3,5.59,6.7,5Z" transform="translate(-304.87 -173.3)"/><rect class="cls-2" x="353.28" y="309.97" width="31.53" height="39.83" rx="3"/><rect class="cls-2" x="409.5" y="310.06" width="31.53" height="39.83" rx="3"/><rect class="cls-2" x="464.26" y="310.06" width="31.53" height="39.83" rx="3"/><rect class="cls-2" x="520.13" y="309.97" width="31.53" height="39.83" rx="3"/><rect class="cls-2" x="276.01" y="309.97" width="31.53" height="39.83" rx="3"/><rect class="cls-2" x="116.32" y="310.06" width="31.53" height="39.83" rx="3"/><rect class="cls-2" x="221.98" y="309.97" width="31.53" height="39.83" rx="3"/><rect class="cls-2" x="168.04" y="310.06" width="31.53" height="39.83" rx="3"/><rect class="cls-3" x="85.13" y="384.69" width="201.54" height="8.39"/><rect class="cls-3" x="294.26" y="384.69" width="290.87" height="8.39"/><rect class="cls-4" width="644.38" height="644.38"/></svg>