<svg id="Layer_1" data-name="Layer 1" xmlns="http://www.w3.org/2000/svg" viewBox="0 0 644.38 644.38"><defs><style>.cls-1{fill:#7fa7ff;}.cls-2{fill:#fff;opacity:0.32;}.cls-3{fill:none;opacity:0.13;}</style></defs><title>sata</title><path class="cls-1" d="M390,444.38v56a12,12,0,0,1,0,23.91v55.37H864.74v-2.93a3,3,0,0,1,.77-2.14,2.92,2.92,0,0,1,1.68-.88l20.55-.08a2.55,2.55,0,0,0,2.26-2.15v-14a1.76,1.76,0,0,0-.14-.78c-.46-1.14-2.08-1.78-4.06-1.7H869.91a4.76,4.76,0,0,1,0-8.88l15.94.11a4.05,4.05,0,0,0,3.1-1.11,3.82,3.82,0,0,0,1-2.13V485.8a4,4,0,0,0-.81-2.05,4.68,4.68,0,0,0-4.09-1.45H871.36a4.69,4.69,0,0,1,.11-9.22l13.39,0c2.15,0,3.93-.86,4.49-2.26a2.75,2.75,0,0,0,.19-1.1l-.12-16.51a2,2,0,0,0-.5-1.46,2.06,2.06,0,0,0-1.68-.6l-19.51,0a3.39,3.39,0,0,1-2-.79,3.35,3.35,0,0,1-1.11-1.92V445Z" transform="translate(-315.56 -174.2)"/><rect class="cls-2" x="561.78" y="276.7" width="12.66" height="22.22" rx="3.45"/><rect class="cls-2" x="561.78" y="308.1" width="12.66" height="63.85" rx="3.41"/><rect class="cls-2" x="561.78" y="380.76" width="12.66" height="18.66" rx="2.59"/><rect class="cls-3" width="644.38" height="644.38"/></svg>