<?xml version="1.0" encoding="utf-8"?>
<!-- Generator: Adobe Illustrator 24.0.1, SVG Export Plug-In . SVG Version: 6.00 Build 0)  -->
<svg version="1.1" id="Layer_1" xmlns="http://www.w3.org/2000/svg" xmlns:xlink="http://www.w3.org/1999/xlink" x="0px" y="0px"
	 viewBox="0 0 644.4 644.4" style="enable-background:new 0 0 644.4 644.4;" xml:space="preserve">
<style type="text/css">
	.st0{fill:none;}
	.st1{fill:#FF909C;}
	.st2{fill:#FFFFFF;}
	.st3{opacity:0.6;fill:#FF909C;}
	.st4{opacity:0.32;fill:#FF909C;}
</style>
<title>Nvme</title>
<rect class="st0" width="644.4" height="644.4"/>
<path class="st1" d="M196.9,167.6v314c0,0.2,0,1.2,0.7,1.9c0.8,1,2,1,2.2,1c14.9,0,29.7,0,44.6,0c0.3,0,2,0,3.3-1.3
	c1.2-1.2,1.3-2.6,1.4-2.9c0-7.6,0-15.2,0-22.8c0-0.3,0.1-1.8,1.4-2.9c1.2-1,2.5-1,2.8-1c55.4,0,110.8,0,166.1,0
	c0.1,0,1.4-0.1,2.2,0.8c0.5,0.6,0.6,1.3,0.6,1.5c0,8.3,0,16.6,0,24.9c0,0.2-0.1,1.7,1.1,2.8c1.1,1,2.5,1,2.7,0.9
	c5.6,0,11.1,0,16.7,0c0.3,0,2.2,0,3.5-1.5c1-1.1,1.1-2.3,1.1-2.7c0-104.9,0-209.8,0-314.8c0-1.1-0.3-1.9-0.6-2.4
	c-1.1-2.1-3.8-3.3-6.9-3.2c-78.4,0-156.8,0-235.1,0c-0.7,0-3,0.2-5.1,1.9C197.2,164,197,167,196.9,167.6z"/>
<rect x="248.8" y="447.2" class="st1" width="173.5" height="18.6"/>
<path class="st2" d="M417.6,481.3H253.8c-2.6,0-4.7-2.1-4.7-4.7v-11.3c0-2.6,2.1-4.7,4.7-4.7h163.8c2.6,0,4.7,2.1,4.7,4.7v11.3
	C422.2,479.2,420.2,481.3,417.6,481.3z"/>
<path class="st3" d="M342.5,476.4h-36.7c-0.9,0-1.5-0.7-1.5-1.5v-14.2H344v14.2C344,475.7,343.3,476.4,342.5,476.4z"/>
<path class="st4" d="M413.7,476.4h-61.1c-0.9,0-1.5-0.7-1.5-1.5v-14.2h64.3v14.2C415.3,475.7,414.6,476.4,413.7,476.4z"/>
</svg>
